<?xml version="1.0" standalone="no"?>
<svg xmlns:xlink="http://www.w3.org/1999/xlink" id="wave" style="transform:rotate(0deg); transition: 0.3s" viewBox="0 0 1440 490" version="1.1" xmlns="http://www.w3.org/2000/svg"><defs><linearGradient id="sw-gradient-0" x1="0" x2="0" y1="1" y2="0"><stop stop-color="rgba(162.591, 212.918, 225.758, 1)" offset="0%"/><stop stop-color="rgba(121.843, 195.227, 221.204, 1)" offset="100%"/></linearGradient></defs><path style="transform:translate(0, 0px); opacity:1" fill="url(#sw-gradient-0)" d="M0,245L120,253.2C240,261,480,278,720,310.3C960,343,1200,392,1440,343C1680,294,1920,147,2160,114.3C2400,82,2640,163,2880,179.7C3120,196,3360,147,3600,155.2C3840,163,4080,229,4320,269.5C4560,310,4800,327,5040,334.8C5280,343,5520,343,5760,326.7C6000,310,6240,278,6480,269.5C6720,261,6960,278,7200,236.8C7440,196,7680,98,7920,81.7C8160,65,8400,131,8640,179.7C8880,229,9120,261,9360,245C9600,229,9840,163,10080,171.5C10320,180,10560,261,10800,310.3C11040,359,11280,376,11520,318.5C11760,261,12000,131,12240,65.3C12480,0,12720,0,12960,24.5C13200,49,13440,98,13680,114.3C13920,131,14160,114,14400,89.8C14640,65,14880,33,15120,16.3C15360,0,15600,0,15840,49C16080,98,16320,196,16560,261.3C16800,327,17040,359,17160,375.7L17280,392L17280,490L17160,490C17040,490,16800,490,16560,490C16320,490,16080,490,15840,490C15600,490,15360,490,15120,490C14880,490,14640,490,14400,490C14160,490,13920,490,13680,490C13440,490,13200,490,12960,490C12720,490,12480,490,12240,490C12000,490,11760,490,11520,490C11280,490,11040,490,10800,490C10560,490,10320,490,10080,490C9840,490,9600,490,9360,490C9120,490,8880,490,8640,490C8400,490,8160,490,7920,490C7680,490,7440,490,7200,490C6960,490,6720,490,6480,490C6240,490,6000,490,5760,490C5520,490,5280,490,5040,490C4800,490,4560,490,4320,490C4080,490,3840,490,3600,490C3360,490,3120,490,2880,490C2640,490,2400,490,2160,490C1920,490,1680,490,1440,490C1200,490,960,490,720,490C480,490,240,490,120,490L0,490Z"/><defs><linearGradient id="sw-gradient-1" x1="0" x2="0" y1="1" y2="0"><stop stop-color="rgba(89.71, 176.737, 207.543, 1)" offset="0%"/><stop stop-color="rgba(121.802, 198.579, 225.758, 1)" offset="100%"/></linearGradient></defs><path style="transform:translate(0, 50px); opacity:0.9" fill="url(#sw-gradient-1)" d="M0,392L120,392C240,392,480,392,720,351.2C960,310,1200,229,1440,163.3C1680,98,1920,49,2160,32.7C2400,16,2640,33,2880,49C3120,65,3360,82,3600,138.8C3840,196,4080,294,4320,326.7C4560,359,4800,327,5040,318.5C5280,310,5520,327,5760,310.3C6000,294,6240,245,6480,236.8C6720,229,6960,261,7200,294C7440,327,7680,359,7920,310.3C8160,261,8400,131,8640,89.8C8880,49,9120,98,9360,130.7C9600,163,9840,180,10080,204.2C10320,229,10560,261,10800,236.8C11040,212,11280,131,11520,81.7C11760,33,12000,16,12240,16.3C12480,16,12720,33,12960,57.2C13200,82,13440,114,13680,163.3C13920,212,14160,278,14400,294C14640,310,14880,278,15120,261.3C15360,245,15600,245,15840,228.7C16080,212,16320,180,16560,187.8C16800,196,17040,245,17160,269.5L17280,294L17280,490L17160,490C17040,490,16800,490,16560,490C16320,490,16080,490,15840,490C15600,490,15360,490,15120,490C14880,490,14640,490,14400,490C14160,490,13920,490,13680,490C13440,490,13200,490,12960,490C12720,490,12480,490,12240,490C12000,490,11760,490,11520,490C11280,490,11040,490,10800,490C10560,490,10320,490,10080,490C9840,490,9600,490,9360,490C9120,490,8880,490,8640,490C8400,490,8160,490,7920,490C7680,490,7440,490,7200,490C6960,490,6720,490,6480,490C6240,490,6000,490,5760,490C5520,490,5280,490,5040,490C4800,490,4560,490,4320,490C4080,490,3840,490,3600,490C3360,490,3120,490,2880,490C2640,490,2400,490,2160,490C1920,490,1680,490,1440,490C1200,490,960,490,720,490C480,490,240,490,120,490L0,490Z"/></svg>